<mxfile host="65bd71144e">
    <diagram id="HIP3nbAZw_EuaXWnEj3U" name="Page-1">
        <mxGraphModel dx="626" dy="199" grid="1" gridSize="10" guides="1" tooltips="1" connect="1" arrows="1" fold="1" page="1" pageScale="1" pageWidth="850" pageHeight="1100" math="0" shadow="0">
            <root>
                <mxCell id="0"/>
                <mxCell id="1" parent="0"/>
                <mxCell id="7" value="http://ics2o.mths.ca" style="swimlane;whiteSpace=wrap;html=1;" vertex="1" parent="1">
                    <mxGeometry x="60" y="60" width="760" height="480" as="geometry"/>
                </mxCell>
                <mxCell id="8" value="" style="rounded=0;whiteSpace=wrap;html=1;fillColor=#f9f7ed;strokeColor=#36393d;fontSize=9;" vertex="1" parent="7">
                    <mxGeometry y="120" width="760" height="360" as="geometry"/>
                </mxCell>
                <mxCell id="9" value="Day of week:" style="text;html=1;strokeColor=none;fillColor=none;align=center;verticalAlign=middle;whiteSpace=wrap;rounded=0;fontColor=#0D0D0D;" vertex="1" parent="7">
                    <mxGeometry x="-3" y="178" width="150" height="30" as="geometry"/>
                </mxCell>
                <mxCell id="10" value="enter..." style="text;html=1;strokeColor=none;fillColor=none;align=center;verticalAlign=middle;whiteSpace=wrap;rounded=0;fontColor=#BDBBB9;" vertex="1" parent="7">
                    <mxGeometry x="28" y="287" width="62" height="30" as="geometry"/>
                </mxCell>
                <mxCell id="11" value="" style="whiteSpace=wrap;html=1;fillColor=#e3c800;fontColor=#000000;strokeColor=#B09500;" vertex="1" parent="7">
                    <mxGeometry y="17" width="760" height="110" as="geometry"/>
                </mxCell>
                <mxCell id="12" value="&lt;font color=&quot;#000000&quot; style=&quot;font-size: 9px;&quot;&gt;ENTER&lt;/font&gt;" style="rounded=1;whiteSpace=wrap;html=1;fillColor=#ffff88;strokeColor=none;fontSize=9;" vertex="1" parent="7">
                    <mxGeometry x="38" y="340.38" width="70" height="30" as="geometry"/>
                </mxCell>
                <mxCell id="13" value="Age:" style="text;html=1;strokeColor=none;fillColor=none;align=center;verticalAlign=middle;whiteSpace=wrap;rounded=0;fontColor=#0D0D0D;" vertex="1" parent="7">
                    <mxGeometry x="-24" y="257" width="150" height="30" as="geometry"/>
                </mxCell>
                <mxCell id="14" value="Your price is: _________" style="text;html=1;strokeColor=none;fillColor=none;align=center;verticalAlign=middle;whiteSpace=wrap;rounded=0;fontColor=#0D0D0D;" vertex="1" parent="7">
                    <mxGeometry x="31" y="376.64" width="165" height="30" as="geometry"/>
                </mxCell>
                <mxCell id="15" value="" style="shape=image;verticalLabelPosition=bottom;labelBackgroundColor=default;verticalAlign=top;aspect=fixed;imageAspect=0;image=data:image/jpeg,/9j/4AAQSkZJRgABAQAAAQABAAD/2wCEAAkGBxMTEhUSExMWFhUXGBcYFxcYGBYXGBUWFRcXFhUYFRUYHSggGBolHRUXITEhJSkrLi4uFx8zODMtNygtLisBCgoKDg0OGxAQGi0lHSUtLS0tLS0tLS0tLS0tLS0tLS0tLS0tLS0tLS0rLS0tLS0tLS0tLS0tLS0tLS0tLS0tLf/AABEIAKgBLAMBIgACEQEDEQH/xAAcAAAABwEBAAAAAAAAAAAAAAAAAgMEBQYHAQj/xABREAACAQIDAwYHCwgHBwUAAAABAhEAAwQSIQUxQQYTIlFhcQcygZGhsdEUFSNSYpKTssHS8BYkQlNygqLhMzRUY4OUwiVDRHN0o/FVhLPD4v/EABkBAAMBAQEAAAAAAAAAAAAAAAABAgMEBf/EACgRAAICAgIBAwMFAQAAAAAAAAABAhEhMQNBEgQTURQiYTJxgaHhQv/aAAwDAQACEQMRAD8Avpt0TLT0JXGWuqzGhrlo1u7FGZeqkGFMQ9DSKRdKJYua06GtLQ9jFlii06urSDLTEImuRSpWiEUxHAa4K6tdAoATIohFLkVwrTsVDfJQApbLXMtACbCuAUsVorGKYB3Hwa/tv9VKbGl7zfAqf7xx/ClNRSiEmHiknFLCj27UnXdVWKiPuTS2FEdIjSnmKuqCBlEDspew6Fco30nLGgUc7HmDgrMDuNOCx4GKLYsgxBpe9bUCKwbybpYG63WOhNcvORuM01uWGHitpFRxxxBg1ajeiHKtgx1x3bKun466ZXNmXFkyDxqTGLA130zxWPLaCtY+WkZS8dsiip408spAoqpOpo7mdBurVszWBFmE0a2s0ZbFLqkaUmxoRZeqk7gp2RSLChMGNwlDLSpNEJqhFxWlCtFVZoNpXEdYRlpN7QpdRNFdadioYuYNKW3pdrU0kyRTsk61JkUsFoBaBjcpXMlLRQK0xDcpRGWlb9xVEswUdZIHrqNv7ew6j+kB/ZBPp3emk5JbCm9D4LNdyVAnlLM81Zd+/wD/ACD66YYnlJd1zXLVoDfqpYDtWWI81Q+aKLXHItpSm9/FW08Z1HeRPmrPMVyusHRsTdu9YRSB/GR9Woq7yrQTzWHmATNxyd3UFyj11D5/hFrh+WaXf25aG4lu4R9aKYvthzqtkx8Zt32D01nLcosY65kIRdf6NAuX98CfTSm0Nm3nw1u/ecA6xLuz3pl5hiQsKOFZvmkWuKJeLXKKSEa/h1AJOQ3LfjGBv1gwOupS1ibkTzYcdaGR51LVRsTyWsLZL3MQyO9w65JQMTAXQTvYCZA3+WHs7Jvh4sNcmTlIUhiAeoGZ7JqFyy6ZT44/Bqa7TQHpBl7x9m/0UsuMU7mHduPmOtZte29jrN1rQa6wBhUvqC/DeGB49VOvyvu2yVxGETQAkrnsmCQNxkEyeA661XqJdozfBHoveJYsaLaJXdVVwvLHCNoTfsnqKhx/AVaPJUzhNr2rn9HiLLzuVmyN81wp9NbL1UdNGL9PLaZP4THFB10/tY3NvqBa86iWtNHxl1Hokemj2dpW+uD1H+U0/Pjlph4zjtEnir5Mwai2tGaW54HcQfLRC9bR/BjN/IQW66EFcL1wmrJtBooUmZrlFCsUL10MaTDVxnNOgsM7UizUGFBVqkhWEmhSzCBSBNNCZdrDaUa6ZFNLV7SKWD6RXDWTssNbpSkLRpYUMYAs0U2O2qNyh2zjkvNZL4dLcaHNaUspOhIutI9HGoi70xNzFI3yBfw6r5zcPqrF8tFqFmi4raNi0Dzl1ARwmT5lk1CXuV+H3Ww9w9ggenX0VTLluYCvgl7XxC3T5IdV9BpJsHcYQ207ajqtXcPaA+jIny1Pusr20WjFcpr28WVtDrusB5ixX1GobFcqixynFZmO5LCO7HsAtgA+fhUZ+TGAIBfFB24k4ixJ7CZkj005wmy9n2c3N4i2rMAs+6bMjrIld5493CofI32UoJdDC9tQMGYW2YgAkXrotuZ3fB21Zh3My1GXeUGIyjm7Vu2CYDKoYk/JN3MZq04a1gRbW2b1pgDJnFW+lrJBAUjXiRB7aRw+zNmo2YXrcgyAcTbKgTIA+C3d9RZVEFicFffILl+7cYm2zIxIVMxQtaZQcvisJ3b6Nyo2WwuG1KLlVmMMQCFYowCnVQCuULuGTfVlxy4O6ztcxVslpiMQq5A28AC0QeO8cd0xSd/3GyLb91IEVcsDESWOYtmcm0Q288KLCiI20iWsHZwzMj3bcZ1jpIzFnCTx6Nz1b6e+48JgcT03Fx7aadHoh436ltdfPTu77hJUm7hyVKnNzxzsUQICzi3J0Ua1zB29n22LtesXTMjNebU9bfBanv8ANQMFnE2GsteTIC0MsNEycrBVEEAkQcseMZpDE461awqFED3kzWybgaHHSGmpEBWCx1SNJqU2rjMBfUI12ygEQEusAsCNF5gjyRTdb+zsnNs2HcTJZr12WO6YFrTTqpDE5LNZsCXjEXSW3yTimIRZ0Pik0nse0tu6929iBaDXLqpLjK5L3IBIOkAiVkGpu5ygwTKVN2xl+KLrqNOrLZ0qEu3MI4ye6rK2805Ocdt3a1kkz2n0AALIB9vbYs+6bBuENoYNsAxezIEYZf0IEZZOpBo/Le4t7F8wqyH6U5sqoVzIXJO8ZY03adtN7mHwBMtibLQRB5x1YZfFGYWNw10Eb6mLG2sGt4X+ds84EyTzt7xTlP6rfIGvYeumIruO5N4ZLy2+dVXhZLEqoLCAY17I11ndTf8AIBixti4iDnMmfUidYG/fugaampS7Y2ebrXmxVtmZiWLXbhmTO42Pxp1UngbWEtMWt49MpIORrl1gCGDDU2d4I3gA607Ar2OwGIwl4phrl5ipAZhmUgtuBVGKieGpmRTy/wAq8dYc2sQquymCtxbbkHtYaz5aubcosOSWGKtKx3kXGBMCBmb3PLQBHrmmLYnZ7CLj4W5qSpZiCsmTBFgZpOpzTMmlYEFhuXVo63cMw6zadgPmPmHDrqVwvKzBtuxDWz8W7bMfOtkj0U4ttsoJzeXCb5nn7waZkdIWwd/DdoKTOH2TprhoXQDn7hkQdGY2sxGs7+FUpVoTV7JTC4ov/RXLF0fIdSx/dlSPNTq4zjx0Knt9piqlb2DsgCDeQ8Z90mRPURY0pzYt2LWmH2m1vsOK5xfmvZitY8812ZPhg+iwhx1/jvoypIkCR18KhrO1CPGxeBudrQjH960EHop5b2phGBzX8OrdmIVh2+MgI89ar1j7Rm/Srpj7LwowQcTTO1iEfS3ftOeAS4HJjeeJ0p4tuuvi5VyK0c3JxuDo4xFCaPkoFK1MxByaSKmnfN0Mgp2Kg35X4P8AXfwv7KN+WWD/AFv8Leysb9+Md+vbzW/u0uu1McY+Hfzr92vK96R6XtI18ctMH+sPzWpReWeF4O3zTWPDG48/79/nD2UpbxmPEnn7nkuHu3RS92Q/bRo/KLaWzsbb5u9JMHK4WGQ8SpPDsOlZne5LkMcrhknotkjMN0xwNHXHY/8AtF36RqtGxLL3rE4jFPmViINy1oABB6aluPXwrOU7yy4xoqF/YeUasJ6gv86ImySf0o/d/nV994rLeNiiNOD2fZRk5NYff7qb6S17KjyRdMoZ2KZ0f+Ee3toHYh+N6B3VernJ/CggHFnX+9t0p+TmD443/vWvbRYihpsT5X8Iro2IfjegfjjV6Xk5hCNMYfprXtoNyewn9s/71r20vIdFIXYfDMfMO6jNsWP0vQO+rkuw8FP9c3f39r21z3lwMge6x2fD2tf4qPIKKhd2HBPSPmFJ+85+MfMPxwq7nYmB/tQ+nt/eojbI2eupxagf9RbH+qjyQ6KYdkfKPmHfXfeofHPmHVFXE7K2cd2LWP8Aqbf3qTOytn7vda/5i396jyCipnZA35z6Oua571dTn0dUdXVVqbZGA4Ypfp0+9Q97NnDfiV/zCa/xVPmh+LKp71HfnPmHXPVXBshvjHzDt7O01cl2Xs3+1KP/AHCfeovvds46jEj6dPvUeSCip+8xjxj5h2dnYPNRG2VH6R9Hf9pq4Ns3Z/8AaB9Ov36KNm7NP/Ej6cfep+QUVB9kwPGO7s7vspW1sWVzZjMkbh2H1mrb727N0/OV+nH3qVt7P2bwxA+nX71HkFFLOxvlHzCjDYo+MfR+OFXJtn7NG/Ej/ML96jLsvZpE+6V/zC/eosVFF96+0+Yd9KLsodfoHdV0969nf2ofTp96jpsvZ2h91D6dPvUeQUVVOTsqWznzDspNeTpMkud43LOhbUwN/XFXxMHsxtDi1B6vdNv1ZqYco9n4NcNcOGxU3ujkC31YyWUGFUk7iaokU2KMPh0CW0uzAlinSbv13dlSQ2mnxbnzP51mC+6+GJufSXPbS4tYzhiLp/xbvtrdeomlSMXwRbtmj++tvqf5v86421rY+P8AN/nWdRiwY903fpbtKJdxYMe6Lh/xbv8A5p/UzD6aBfvfe18r5v8AOje+dv5XzazxmxhOmIuj/Fu0Ytjv7Td+lue2n9VyC+mgRqr8searLs7Ydu4gZcUvaCgBU9W+s0wh1CiNTvp1jrMb4InqE1i0bJmm/k0v9qX5o9tHXk6g/wCLXXsWsgK69ncKk9i3TPNIilrjABiAY69CI7ahxfyVa+DTByetz/W18y1CbY2C1twy3rdznHI0QEqMrNJmRvAFV3bkorWyFbUdIhQRqN0AU65B2iWvkAaKm/tLeykk92GBptPEnIE5tVKHpXABM6jcBuM7qi2uDr/HdUjtkkOAAJL+TXSmG1MEbcTvIkg6QeNWSLbMxgtPnZc+hEHgTx3VY8TauW0S8yr0pJt5VAAM5YOWd0VRWfTfWncpbWW1b7l9C/ypNUxplCxOMzOzaLJnKAIHdRRcJ4nzD2Ug9o6nvpFWPb56dCstnJ92u5cPbQZiSS5AJC5hJgiJE0fa+KNnPaIDSSuaACBEaADeImlvBTbzY0gzpZc/xJSHLO0OdYD4x+2p7K6INLxP6R8w9lKJcggzMEHhwM1GTrGtH16zVUKy94PDXb9pr4UW0A6MAGSSQdSOEVX9q7TNyFyhcvAcZjeY1rQtgyNjWt2ubv8A6RqyvHj4RteP2VKyNique38eSnWzMZkuABQxeEAbgWIg1ELPWakdgWS2Kw675vWhr2uKdCss20sLdw6JeuAS0k24ACgzG4cO2q3ir5dy+6TuA0FaR4U7ZVBoOI7RoRWS69ZpJWNsePcjeTVg5MrdvrzVpBClczkdIC4WM6jhlPnqoEma07wRWDlxJif6Oe7p+2iWEJO2QG1sS1hrlkwwMgMYmCI3ARpUFn7T6KmvCAgGJMHrn+Gqo54fbQlYN0PbeKykNvykGCNDBmDHCr4dm4hrL3mAtgKpQKB0swzGTHCQPJWci3Kk9h9VegOUaFcCon/druHyaJAjHNq7Ra8V0C5Z3AazG8+So+2GYwCSOumL+Mwk7z19dKYZeHCnQWWfkxz03Ldm2txuixkjMNcsd27zGrFjMTewF9RzknIpBMDKw3xFH8C1v4fEEiYRI7NXpt4X0+HQ/JqexjTCYi01wtcvxJJaHtA6mTEjSrfh9n4AgRtECeu9hp8oKyKyTZVps2TSCZnj56kcfinRXw8goxUyR0tCGEHh1d1UxF+xWysGD/X1Pddw/wBi0lb2dg5/ry+W7hx6xWYFe+rFyR2deuK628gXOslhLajpEHrAjTupfyMu1rZeD/8AUU+mw3sp6uyMHx2gv02F+7Wccpb72Xu4dYZTEMwBZQY3Hyemq95TQA6ubAvWHXnAoaMxUMCVBHGNJ13UltEyKk7W2IgPaRwyyAZ6MaCTGu4aA+uovFHStCER+SpLk6n5zaPUSfMrU1C06wLZXVhvB+yk9DWx3yjaXapLkAn9YJ+Lb/8AsqHx9zM09dTXI8QL/aEH16nofZG7VX4W3/zF9dH5WibhpXadkC9bGvjp5yRPpovKYfCHy+uk/wBSBaK1ftwDWk8qiCi793qFZ9il6JrReU1k82p04/ZTe0JaKDdtwPPUdFTF8aVGlKaAt3gq0xjn+6b66UlyqHwrftN6zTrwXiMTcOmlo7/2lpvylM3W3eM27vNT2PoqV8QfLRdaWxCa+WgFqhGwbGt/7Fw+nA+X4RqybaQ+ENbZsXTYuFHyD9Z6xrai/CGkhsjamuR4LY7Cgcb9r661FlBU7yHQe+GE/wCos/XWmI0Lwr4dsok/G9TVjpFbR4WGUqvX0vU1Y86ClEbG9tda2LwN4YG1i2O8G16Q8+qsmtLrWzeBZfgMX+1b+q9DEZ94SR+dHtJ+z2VUFGpq7eEm3+c+c+cmqig1PkoWhvYoLfRP7Jr0RyxsKMH/AIQj5orz+g6J7vsrf+XWIK4WB8QD0AUnoO0eeEt6t+03ro1tIalbQ1b9o10L0j5KYGleBCyDcxZPBLXpNymXhet/Dp3fZUp4EV6eLPybX1rlMPCuh59e4/ZSBbKPsu30/JR9uW/hSewUtsodPzUbbg+FPcKYERkrQ/BtZ+AuE/rSP4LdUYKOqp/k7tu5YGRYK5ixB4yAN/DRamStFJ0d5ZbLz3jeDKFaANRrlGum+O2qm9mDFWTbGIKNFk5bZAOXLukEEZhH4NQ94kkk7zrVEojQhDITO4+gkVOvs6ybSENca60lgFICLwyt+kdddKhMRBZPhC2k6iMp7KNiMQUXMlw5h1SAOvfoaszC3MOyMytMgxqIPmNCyCGFBrhY5mJJJkkmSSeJoyHUUFB8TPlqX5NEhbnX0Z/iqGvMZqa2G5GaDrofNNS9DQ1vOTetyf8AeL9aht8nnD3n10niE+Etz+tT64pXbhPOeU/ZUvY1oicYnRNXvlLabKuv6PsqlYpeiat23nEAdlPtB0Qm2cOFFsjTMimP3RqKgrw0qw7Zb4Kz+wn1KNh+TBuKHF23lO7UnWNc3UBMT11UItoic1HY+8FtmcRe4xa11+UKbcoki62n6TegndT/AMGyFMZilWDltkSRwFwideOlMOUc84Z+M31jUv8AUWngrGI3+Wii2T1nz0piftpFcQyM0H8QOHkq0iWza9llhsfDDLuTSZ62rI9og561TZuIL7Jw5PxJ9DGst2qwNwwIE7gTpUIpjAg9dT/IZZ2hhP8An2uPyxUGR3+c+2p/kED744SCf6a3v1/SpsRoXhYtQq+X1NWQGwd5Bj96ti8KTMQizpJ9n21iC3S0S07uJ66IoUmPrFvU1s3gd/q+L/at/Veses7/AMdlbD4Ix+bYv9tPqNSYyjeEpPziSeMce/h31UrNvU/jr66tnL5vzhgew679RULs7BC7cdA6WyJjNPSAzTx4ASaqKtClJJ5CAQnkrduW9mbEx+iPUKxfamzeZUy+beNFiIAOvSOpme6ty5b4mLMiDpOvkqZqsMcJKVNHnldC/wC0aUQn00WOk3eac21EUDNG8BwBfGidQtmR3m7SHhcsjnlieNLeBHS7jyPiWPRztI+FVib3cx9VD6EuykbETpdulKbZtnnh3CfTRti6PP43mltr63R+z9tAxlZw4dlUkgTrG+BwFP8AGYe3baLeYjSCcg84DHT00xZfVSGCY5mIXiRqx4aeQU0Joc46yCQzZcwyxqJg5vL/AOKS9yhtST6PtIruNsMCMwfNpADnIZ0GYfypdbTn9EfO/lQwRVwekP2ftNGxIlSBSc9LyCjmrZCDKdKUtNqKTilLYoGGvONO+nWFuEGQaZPvHeKXBINSMUxrGVI3h1PmM/ZR8ffzkGNeNIOxJE1xxSY0LYhCUYgSF1PYJ41ZdtDdqd321V8Q5CtGkiD2jTSrFti/B8n2mk9j6GW2Lc2sOJA6C6nQDo8TRFa/YsqwujIWAAABEspJIYjUdm47xR9ribeGWJzBBHawimfu7FhHtC43NoChWVgKsrGuu6a043gy5FnJLchSxxN866pqe0sT56a7ZBzH94+YtUvyTwgS2b4Ml8yleoA7xUJtK4Sx/e9bVldtmqVJEPeGgPaaZ3LRLMQDGm4fJqSxWFcIjlSFcnK3AwSDHlFJG1VpktGn7LYjZWGEb06uxvZWX7c1Y6RqNK0XD3v9n2Fncrf6qzba/E91TDY5aELSJzTAoCxIhpMrEyAJgg9tT/g2H+0MN/zkqvLs+8QCEYggEEagg7tan/B2xXHWDrpdQj+VW9MiOy/+E2+0qOwnyyKyJLBCqelvAiDpqdZrUfCJicziD+ifWKoAXXcfPUQeC5I7Y3/jsrYvBQIwuK0/3i//ABn21jtodIfjqrbuSGKyYNl6wh/hApSdDStGacu/6wx7F9VROzsA73S1u6FcMYjVhLFTIndB8s1I8sL+e8Tu0X0CodXu2ybloshZ3tyDGbKQeOnVp1itON4Imsju0btx2S4XYKDvkRq3Sht0xWycqXnDKP7tT5MorKdhtdJxJvEl+bXVjJjpxu8tajyuEWEj9Uu/9kVnyPLKgsIxQeM3eaeYK0W3KW64/GlM1HSbvq18iEnnjOmX7aJOlZSyy0eB2zF3aHAZbIHk5yo7woLF7f8ApH1U/wDBpdy3caBx5ufO3tqJ8Id7NeIPxmpXlBVWQHJ2yWYhVLHXcJMb6W5TWwl8DLl6Akb4JmpPwer+dD9lvqmictwPdTT1LT7EVxnEHu6jXNk4dixWNSxIHEg60pp1eipLk+v5xb7/ALDTGNtsFsyZjroDwIg8R5aTLfiDUjy1X4VSOoT5GpmrD4s0ukC2yr4t5IY5Aohfg8zQIEAk6bq62GBXMknTT8RUzjNl2LmHF23nSACElTqSFOaRJPbUbhOgMpJC6klYzCRBg9la2jLxZx9jYkNbQpDXACASFjNoA2aIJkadtJW7LB8r9Ea66GTOmU0Nm7SYKOcLOucQGcgAaaZtY3DzU82jjLT5GQKsuxyq5eBpEse2e2jJT8atCN7DCJUkneN1HwVkQWusRroJ1jzH8CpK06BQd/lqC2pjOm0CdfQRuEd9BA6u4dXIyZt+7QnQSZGkUksFdN8+gdlJ4FsnwhPS1ygNu1hs28ajtrmKuhmzTBmdNJ8lNoaYsE5w5Z03uRqUSQC2SZYCeFaHtvZWEZZTEBtBudPVAqgbL8fdM9tTfN9Y9JrOWykx6uDtstps0m0VUgsqhSDCvMyRxiOFQ/KDDsL7LaDDnPHnUMWYw4Y7lYEEbo7Kd3UbKVUaEqSBrOUyN4qc5UC0uFtZFVbps2WuQhLHRI1J6MySSBqRRHDRq1GUcbW/8IzkdewyNkxFx0uEuAoAyhc/RJLDQmG1BIjLuo+39m2ExD2FvMHQhXDBSVLakwCMwAYeKW47tJr2xEY3HZhpwEa8NQSe2p3D3xbY3TMhW147o0MEgwImNKJKmReBntnEW2waWbZYmzdY5XGW4cxbKMnE9Pu0qDZH3ZCWUlWHEEcDU1hMe11DeYnnelJPXqynuErp8mi3MRzr25Yk5CxjfJOgMdnqppUhXZd8RgrFnB2Lb3g13LqqlCASCzgkMdVBIE+MRHHTNOUmzwDNslwY4CYHAqpMGp69imtp0Q0ll1kggicsb9QTNcFsa6nXs/nUrGRumT2F2bbsYO0962VNyyL+sFSEZMtv5IfOc0RqKreH2hnvvetW5VGBGVQAiOHGXQa8DOm47qldt7Vu37du1rktrlVdAFUGCM0S0rvnfJqJwFq7bVlUKMwjXXhAbTiJ0p2qFpkxesW3RkvXALqF9bTI1uM0iMxGgjSDERVaxOBYXUt2vhMwXpblzNoYO4qNNamLFkjxmJ8gFTGwscti4XYqgKkF2UuEBgk5RvmMvlpJ5G/yUe1YfOFgzMTw39Z0itRv7Ws4TCooY3WLBWyFSFVYVtVLAGSIJqq43bKELaS0rF7hbnAoAynQEcVgK+m7UdtEFieB0JO8cfJUW28qq/selhi/LfZWHIz275E/KR9yloi3rJiKibzWjYe0FzFXYplZzFwqZfKQJBYQQMwGapI2zxrnNj8CqvAhDkkn9YN8lMyIBIgnVgcojWJFX5NuWMZYZFV2uKGVUAdSQviCTbIzQNZjcao/ND8AVdeQ969cR7FgrZW3luPeI5xrlxmMKASMoyoQT1HtrLn5FCLmyoLooe1OTTW0uXFIdQwGYMDEz2Cd0adW6pPkELdm3c5+4iEqFALEE8SYCN2VDcoNn4y291LguOGdjnGbm7p1IIYdHtHV2U52ZhnFvmIztctsCRlOXUMOlrBEDUa6VtVx2H/WFRZ+SeOwtq5eKXjcLuIV1KkoGK5oVdJmRru4b6d8rNkjFo3MqVviWCksCde0QQeue+KqOG2YbVi0xZWYlgcs9EiGAmdT0uyKsGA22x/pRqFAR1GoIJMntMxPZrSkqYv3Cch9nPZum5eGUAEDpTLHox0Fbt40ly22DfvXBiLEFBPOZmywFEgjMo0iZ38Kn72JtIpMggCTpvnq4UnspWMwNcjFp+U3RWd0CGHelPjXnJInkkoRtmYWcJimYBbeYFssqynWdY1n0VedgcnhZu52Y3LVuSz9FcrZfEjNJjrmj7AN5cbda2hVfEdoSA2TnF6A1DHNMjf0vI/5hrhxIMLZPNqxgDPcYsYUHedN410rSUPs8iFyff41/JSuVe1Ve5nt9FDCxcSSPLm0476irFq5lGUNBEiFMeTTdVr2nsKyAEIJB6W/WQeuJpK3se0BAVvLPsrNTjRbjK7KN7om6CDpkjv4+uKPiLnRbuPqpgpOeQsDup1aUkjMGynfAEgdk8a0omzQ73IWz7iylfhltFgczRzuUnduidN1Q3gz2HZxFm690ZiLgG8iBlB4d/oqXw/Ky8yZObZmiMxSJnjAaKT5M4K7hkKWVYBiGOaJmI4HTzVGaKqJPfkjhfiH5xrh5KYQb1/irqYbEN4zjyk+ylF2ddnxxHHQeuKm38lUvgQ/J/AjQoD+832VwbHwS7rAPfJ9Zp/bwDDeZ/HZSiYJhuy+UE+phSv8hSGluzZXxMOg7lH2ClRhp3WU+YPtp+iOOKeRSP8AVR3D8CvlBP8AqpWOiO96Z3rbH7q/YKiOUOxb11ndGWAFtLv6JyKhYiNAG6urqFWYLd4ssdiH7XpRLIAiFjsUAeampNA4plf5MbKs8zndEzMzeMBICnJEHd4u6nO3MJZTD3Slq2XyEKAqzmborEazJFSpw1uZyLOp8UbzqTu7a6MKn6tfmrQ5fdYvH7aKnyS2PZ5jEK6KwW9cQHcYthVkMNQCQTp10hyC2JZHPFhzhBtrNwA9Lmw7gAiNDcjyVdFwyDXIs8eiNaIuz7QJItWwTqTkWSe0xrT8th46EH2RhmibVrQyIVd+7hv38aP7z4f9Tb+atOfcyfEXzCjC0vxR5hUFDUbIsfqbfzF9ldGyLH6m38xfZT2uigBl70Yf9Ta+Yvspjt3YCXLJWzbto+ZCDlUAhXUsrQNxAIqboZqLoKIbZ3J6ylu2GtK1xUtqzZRq1uTm7yWMnjpNPl2fa/VL8y39lPM1ANQ2wpDc7Otfq0+avsrjbOTgq/NX2U6mhNIBk2BA3KvmFVbl5byokQpMgQANZXdHeautQvKbYwxKp8dCxUliACy5SSANevyVUXkmSwZLt4uPg0L5WYELJAZvEVo3EzImtWe3c+AVcsIvwkjRujl3DvJjrIqi4zFKmNw9gqHGGa1bcnQXLjMXLaTAzMDGsQa07B4B7z5WRE0Ygq5YyBoMuUCK1vKIV0RmwsDzObnDJJzKZJ6Dw3i7gZ1qYVh2UwwOEdUUFuA7dNwA7hApbmD1+is5VZorrIbH4JbqhWkCZ036buzf1g11sPzOFyq7np5ndiM2UsAZIAGgafJROb7TRsZbD4a7bLHdI8bedNcu8AwacG08Ckk1kh8e/NKwsq3OXLlvKflLAkwIjUgjqHCKCXbl51W5A5pkdgNzXQt1ABH6MMGjupK1ZS1ctubwIRGEEgy7EAtM9QI8tRWzNtLnuuzQWYQg1YgTr5Zq3JuLRCilJMebUxlrn0tuCdOBK6knKCVIIG7jUjb2NbgZg6tGoF66QDxjpVULiX7mI51LebphhJA0B0BBPUKvi42RJQg9WmlYSi0bppkRhuTWGTdaU98t69KkbWBtDdbQdyqPsoUK0bZCSHKqBuo09tChSGdFGB7qFCkB2e2hNChSA5XR30KFAHc1dzV2hQBzMKAehQpgdFyjBq5QoAMGoZ65QpDOlq6GoUKAAaHloUKAOzXR5KFCgDldBoUKBBga4TQoUDGW1NmWLyENhrTNIadbTOwQonOXLfSMAz/5o+Da+rK5uBSCCQAGkTqMxA0PYBvoUKdsmkN7mBuMzM1+4MzE5UhVWTMCQT6aN7gHF7p/xLg9RFdoUWOg9vDquozeV3b6xNKzoQJEgqY00OhEihQoAaJs60N1pJ68onyk6mlBaA3ADu0oUKdhQUrRStChQB//2Q==;" vertex="1" parent="7">
                    <mxGeometry x="530" y="164.38" width="180" height="100.8" as="geometry"/>
                </mxCell>
                <mxCell id="16" value="Please enter the following:" style="text;html=1;strokeColor=none;fillColor=none;align=center;verticalAlign=middle;whiteSpace=wrap;rounded=0;fontColor=#0D0D0D;" vertex="1" parent="7">
                    <mxGeometry x="33" y="148" width="150" height="30" as="geometry"/>
                </mxCell>
                <mxCell id="17" value="enter..." style="text;html=1;strokeColor=none;fillColor=none;align=center;verticalAlign=middle;whiteSpace=wrap;rounded=0;fontColor=#BDBBB9;" vertex="1" parent="7">
                    <mxGeometry x="28" y="208" width="62" height="30" as="geometry"/>
                </mxCell>
                <mxCell id="18" value="" style="endArrow=none;html=1;fontColor=#0D0D0D;jumpSize=5;fillColor=#eeeeee;strokeColor=#36393d;" edge="1" parent="7">
                    <mxGeometry width="50" height="50" relative="1" as="geometry">
                        <mxPoint x="39" y="238.5" as="sourcePoint"/>
                        <mxPoint x="282" y="238.5" as="targetPoint"/>
                    </mxGeometry>
                </mxCell>
                <mxCell id="19" value="&lt;h1&gt;&lt;font color=&quot;#0d0d0d&quot;&gt;&lt;span style=&quot;font-weight: 400;&quot;&gt;Museum Price&lt;/span&gt;&lt;/font&gt;&lt;/h1&gt;" style="text;html=1;strokeColor=none;fillColor=none;align=center;verticalAlign=middle;whiteSpace=wrap;rounded=0;" vertex="1" parent="1">
                    <mxGeometry x="220" y="80" width="440" height="120" as="geometry"/>
                </mxCell>
                <mxCell id="20" value="" style="endArrow=none;html=1;fontColor=#0D0D0D;jumpSize=5;fillColor=#eeeeee;strokeColor=#36393d;" edge="1" parent="1">
                    <mxGeometry width="50" height="50" relative="1" as="geometry">
                        <mxPoint x="97" y="374.5" as="sourcePoint"/>
                        <mxPoint x="340" y="374.5" as="targetPoint"/>
                    </mxGeometry>
                </mxCell>
            </root>
        </mxGraphModel>
    </diagram>
</mxfile>